<?xml version="1.0" encoding="utf-8"?>
<!-- Generator: Adobe Illustrator 18.0.0, SVG Export Plug-In . SVG Version: 6.00 Build 0)  -->
<!DOCTYPE svg PUBLIC "-//W3C//DTD SVG 1.1//EN" "http://www.w3.org/Graphics/SVG/1.1/DTD/svg11.dtd">
<svg version="1.1" id="Layer_1" xmlns="http://www.w3.org/2000/svg" xmlns:xlink="http://www.w3.org/1999/xlink" x="0px" y="0px"
	 viewBox="0 0 1000 1000" enable-background="new 0 0 1000 1000" xml:space="preserve">
<circle fill="#1A9692" cx="507.2" cy="499" r="440.8"/>
<g>
	<rect x="256.8" y="247.9" fill="#E8D9AA" width="395.3" height="467.9"/>
	<rect x="320.1" y="311.2" fill="#FFF3EB" width="395.3" height="502.6"/>
	<polygon fill="#CEC3BC" points="715.3,329.7 320.1,314.4 320.1,310.6 715.3,310.6 	"/>
	<circle fill="#E8D9AA" cx="320.1" cy="247.9" r="63.2"/>
	<g>
		<path fill="#EF4136" d="M354.1,277.7h-34.1V311C336.3,309.4,348.2,296.3,354.1,277.7z"/>
		<path fill="#EF4136" d="M320.1,311.2h395.3v-33.5H375.9C365.2,297.6,344.2,311.2,320.1,311.2z"/>
		<path fill="#EF4136" d="M320.1,311v0.1C320.4,311.1,320.8,311,320.1,311z"/>
		<path fill="#BE1E2D" d="M355.2,273.9h-35.2v3.7h34.1C354.5,276.4,354.9,275.2,355.2,273.9z"/>
		<path fill="#BE1E2D" d="M377.7,273.9c-0.6,1.3-1.2,2.5-1.8,3.7h339.4v-3.7H377.7z"/>
		<path fill="#BE1E2D" d="M354.1,277.6h-34.1v0L354.1,277.6C354.1,277.7,354.1,277.6,354.1,277.6z"/>
		<path fill="#BE1E2D" d="M375.9,277.7h339.5v0L375.9,277.7C375.9,277.6,375.9,277.7,375.9,277.7z"/>
		<path fill="#938251" d="M320.1,311.2L320.1,311.2C320.1,311.2,320.1,311.1,320.1,311.2z"/>
		<path fill="#938251" d="M383.3,247.9c0-34.9-28.3-63.2-63.2-63.2c-1.5,0-3.1,0.1-4.6,0.2c24,2.3,43,29.7,43,63.1
			c0,9.3-1.1,18.1-3.2,26h22.5C381.3,266,383.3,257.2,383.3,247.9z"/>
		<path fill="#AF3A37" d="M375.9,277.7h-21.7c-5.9,18.7-17.8,31.7-34.1,33.3c0,0.2,0,0.2,0,0.2C344.2,311.2,365.2,297.6,375.9,277.7
			z"/>
		<path fill="#8C222F" d="M375.9,277.6c0.6-1.2,1.3-2.5,1.8-3.7h-22.5c-0.3,1.3-0.7,2.5-1.1,3.7H375.9z"/>
		<path fill="#938251" d="M354.1,277.7h21.7c0,0,0,0,0,0L354.1,277.7C354.1,277.6,354.1,277.7,354.1,277.7z"/>
	</g>
	<g>
		<path fill="#FFF3EB" d="M715.3,184.7H320.1c34.9,0,63.2,28.3,63.2,63.2c0,34.9-28.3,63.2-63.2,63.2h395.3
			c34.9,0,63.2-28.3,63.2-63.2C778.6,213,750.3,184.7,715.3,184.7z"/>
	</g>
	
		<line fill="none" stroke="#58595B" stroke-width="16.9407" stroke-linecap="round" stroke-miterlimit="10" x1="396.3" y1="460.2" x2="643.1" y2="460.2"/>
	
		<line fill="none" stroke="#58595B" stroke-width="16.9407" stroke-linecap="round" stroke-miterlimit="10" x1="444.9" y1="521.6" x2="634" y2="521.6"/>
	
		<line fill="none" stroke="#58595B" stroke-width="16.9407" stroke-linecap="round" stroke-miterlimit="10" x1="444.9" y1="582.9" x2="634" y2="582.9"/>
	
		<line fill="none" stroke="#58595B" stroke-width="16.9407" stroke-linecap="round" stroke-miterlimit="10" x1="444.9" y1="644.3" x2="634" y2="644.3"/>
	
		<line fill="none" stroke="#58595B" stroke-width="16.9407" stroke-linecap="round" stroke-miterlimit="10" x1="444.9" y1="644.3" x2="634" y2="644.3"/>
	<circle fill="#58595B" cx="396.3" cy="521.6" r="8.5"/>
	<circle fill="#58595B" cx="396.3" cy="644.3" r="8.5"/>
	
		<polyline fill="none" stroke="#558423" stroke-width="16.9407" stroke-linecap="round" stroke-linejoin="round" stroke-miterlimit="10" points="
		368.9,579.7 387.3,598.9 421.7,551.7 	"/>
</g>
</svg>
